<svg xmlns="http://www.w3.org/2000/svg" version="1.1" xmlns:xlink="http://www.w3.org/1999/xlink" xmlns:svgjs="http://svgjs.dev/svgjs" width="16" height="16"><svg width="16" height="16" viewBox="0 0 16 16" fill="none" xmlns="http://www.w3.org/2000/svg">
<circle cx="8" cy="8" r="8" fill="#6D9AC2"></circle>
<path fill-rule="evenodd" clip-rule="evenodd" d="M4.91641 13.4029C4.9473 13.4217 4.97989 13.4371 5.01363 13.4489V13.4781H5.1817C5.35059 13.4781 5.50738 13.3944 5.60169 13.2547C6.27671 12.2535 7.13981 10.9409 8.30912 9.13691C10.226 10.1046 11.6305 10.8021 12.7153 11.3254L12.7161 11.3258C12.7842 11.3582 12.8578 11.3756 12.9348 11.3756C13.1219 11.3756 13.2929 11.2723 13.3817 11.1079L13.5409 10.8137C13.609 10.6878 13.6211 10.5384 13.5745 10.4034C13.5278 10.2679 13.4261 10.1582 13.2949 10.1014C11.6953 9.40961 10.1099 8.65562 8.97814 8.10209C9.16397 7.81467 9.34368 7.53622 9.51491 7.27092L9.7006 6.98323C10.3482 5.9801 10.8559 5.19357 11.0559 4.89767C11.4291 4.34586 11.4651 3.85008 11.3713 3.45394C11.2799 3.06823 11.0685 2.79082 10.9707 2.66256L10.9688 2.6601C10.9001 2.56998 10.7947 2.52148 10.6847 2.52148C10.4904 2.52148 10.3089 2.66929 10.2979 2.87544C10.2757 3.27463 10.1328 3.91297 9.87849 4.35686C9.45117 5.10321 8.71297 6.2886 7.88361 7.56028C6.52845 6.88073 5.2956 6.23014 4.552 5.8015C4.10965 5.54671 3.66547 5.06774 3.44619 4.73413C3.3759 4.62634 3.25577 4.56964 3.13345 4.56964C2.95303 4.56964 2.7829 4.69168 2.7585 4.88577L2.75803 4.88954C2.73805 5.04992 2.69494 5.39608 2.80959 5.77497C2.92748 6.16457 3.20754 6.57476 3.8071 6.86282C4.12143 7.01387 4.92589 7.42196 5.95664 7.94483L6.08853 8.01174C6.44041 8.19036 6.81752 8.38174 7.21086 8.58098C6.51139 9.63095 5.52055 11.0834 4.48583 12.4897C4.40106 12.6049 4.36843 12.7508 4.39576 12.891L4.39586 12.8915C4.42358 13.0314 4.50896 13.1546 4.6313 13.2291L4.91641 13.4029Z" fill="white"></path>
</svg><style>@media (prefers-color-scheme: light) { :root { filter: none; } }
@media (prefers-color-scheme: dark) { :root { filter: none; } }
</style></svg>