<svg width="320" height="59" viewBox="0 0 320 59" fill="none" xmlns="http://www.w3.org/2000/svg">
<g clip-path="url(#clip0_23_1557)">
<path d="M1.61118 24.5858C0.538138 22.43 0 19.9333 0 17.0939V16.3182C0 13.4126 0.53329 10.8625 1.60149 8.66629C2.66968 6.47172 4.16451 4.75226 6.0892 3.51276C8.01228 2.27165 10.2553 1.65271 12.8151 1.65271C14.9644 1.65271 16.9021 1.92905 18.6264 2.4785C20.3507 3.02957 21.8374 3.81496 23.0834 4.83629V11.0257H19.2421L18.6054 7.00501C18.022 6.56706 17.2786 6.22285 16.3769 5.97075C15.4751 5.71865 14.4263 5.5926 13.2321 5.5926C11.5999 5.5926 10.1648 6.04024 8.92372 6.93552C7.68261 7.8308 6.72107 9.07837 6.03749 10.6766C5.35391 12.2765 5.01293 14.143 5.01293 16.2794V17.0955C5.01293 19.206 5.34098 21.0435 5.99871 22.6078C6.65482 24.1737 7.61635 25.3874 8.88494 26.2503C10.1519 27.1133 11.6936 27.5431 13.5116 27.5431C14.6655 27.5431 15.6836 27.4381 16.5659 27.2248C17.4483 27.0131 18.2014 26.7464 18.8251 26.4281V20.717L14.0886 20.4391V16.8773H23.8397V28.3802C22.7392 29.2432 21.3348 29.972 19.6315 30.57C17.9266 31.1663 15.8533 31.4653 13.4131 31.4653C10.627 31.4653 8.23206 30.8576 6.22818 29.644C4.22431 28.4303 2.68584 26.7448 1.61118 24.589V24.5858ZM30.4476 27.3815L27.4628 27.9779V31.0419H38.4486V27.9779L35.4638 27.3815V16.1582C35.8613 15.4294 36.3558 14.8589 36.9457 14.4468C37.5355 14.0364 38.2886 13.857 39.2049 13.9087L42.0103 14.0687L42.5873 9.43229C42.3222 9.3531 41.9813 9.28038 41.5627 9.2125C41.1441 9.14625 40.7498 9.11393 40.3781 9.11393C39.2631 9.11393 38.2919 9.41936 37.4628 10.0302C36.6338 10.6411 35.9341 11.517 35.3636 12.6579L35.3232 12.2199L35.0646 9.51309H27.3028V12.5981L30.4476 13.1944V27.3832V27.3815ZM45.5026 26.3247C44.6736 24.7199 44.2582 22.8809 44.2582 20.8124V19.9769C44.2582 17.8809 44.6671 16.0144 45.4816 14.3757C46.2977 12.7371 47.4224 11.4507 48.8542 10.515C50.2877 9.57934 51.9182 9.11231 53.7492 9.11231C55.6997 9.11231 57.3352 9.50339 58.6538 10.2872C59.9741 11.0709 60.9728 12.1812 61.6483 13.621C62.3255 15.0609 62.6632 16.7885 62.6632 18.8053V21.6705H49.4489L49.4085 21.7707C49.4619 22.8987 49.6978 23.9006 50.1147 24.7765C50.5333 25.6524 51.1296 26.3424 51.9053 26.8466C52.681 27.3508 53.6264 27.6029 54.7414 27.6029C55.8565 27.6029 56.9699 27.443 57.925 27.1262C58.8801 26.8079 59.7624 26.357 60.5721 25.772L62.1445 28.9168C61.2944 29.6327 60.2149 30.2371 58.9011 30.7283C57.5873 31.2196 56.0553 31.4653 54.3051 31.4653C52.2754 31.4653 50.5074 31.0111 49.0013 30.1013C47.4951 29.1931 46.3284 27.9358 45.4993 26.3311L45.5026 26.3247ZM49.4732 18.0457L49.533 18.1443H57.8717V17.6272C57.8717 16.685 57.7295 15.8592 57.4434 15.1498C57.1574 14.4404 56.713 13.8861 56.1102 13.4885C55.5058 13.091 54.7398 12.8922 53.8122 12.8922C53.0026 12.8922 52.2931 13.1185 51.6823 13.5693C51.0714 14.0202 50.585 14.6343 50.2198 15.41C49.8546 16.1857 49.6057 17.0648 49.4732 18.0473V18.0457ZM68.3581 27.3783L65.3733 27.9746V31.0386H76.0989V27.9746L73.3727 27.3783V15.5183C73.8235 14.749 74.4101 14.1479 75.1341 13.718C75.8565 13.2865 76.7033 13.0716 77.6713 13.0716C78.9577 13.0716 79.9257 13.4142 80.5769 14.0962C81.2266 14.7797 81.553 15.9368 81.553 17.569V27.3799L78.7476 27.9762V31.0402H89.5524V27.9762L86.5675 27.3799V17.5286C86.5675 14.6359 85.9502 12.5108 84.7172 11.1501C83.4842 9.79104 81.7582 9.11069 79.5427 9.11069C78.1884 9.11069 76.978 9.41936 75.9114 10.0367C74.8432 10.654 73.9512 11.5186 73.2353 12.6336L72.9767 9.50985H65.2149V12.5949L68.3597 13.1912V27.3799H68.3581V27.3783ZM93.8106 29.7652C92.5905 28.6372 91.9796 27.0858 91.9796 25.1078C91.9796 23.7536 92.3513 22.5674 93.0931 21.5461C93.8364 20.5247 94.924 19.7248 96.3575 19.1479C97.7909 18.5709 99.5281 18.2833 101.572 18.2833H104.856V16.4717C104.856 15.3308 104.514 14.4226 103.832 13.7455C103.148 13.0684 102.157 12.7306 100.856 12.7306C100.113 12.7306 99.457 12.8211 98.8865 12.9989C98.3161 13.1782 97.8054 13.4336 97.3546 13.7649L96.8972 16.6705H93.2159L93.1755 11.357C94.2372 10.6669 95.4169 10.1191 96.7178 9.71509C98.0171 9.30947 99.4635 9.10746 101.055 9.10746C103.788 9.10746 105.941 9.74741 107.513 11.0273C109.085 12.3072 109.871 14.1414 109.871 16.5299V26.0225C109.871 26.315 109.874 26.5994 109.88 26.879C109.887 27.1569 109.903 27.43 109.931 27.6951L112.12 27.973V31.037H105.574C105.441 30.5732 105.318 30.1207 105.205 29.6844C105.092 29.2464 105.01 28.8085 104.956 28.3706C104.24 29.2723 103.374 30.0124 102.359 30.5894C101.345 31.1663 100.2 31.4556 98.9269 31.4556C96.7372 31.4556 95.0339 30.8916 93.8122 29.7636H93.8106V29.7652ZM96.9748 24.9704C96.9748 25.8059 97.2398 26.4507 97.7715 26.9C98.3015 27.3508 99.0643 27.5771 100.06 27.5771C101.055 27.5771 102.01 27.3411 102.886 26.8709C103.762 26.399 104.418 25.8059 104.856 25.09V21.4879H101.513C100.013 21.4879 98.8817 21.8369 98.1189 22.5334C97.3562 23.23 96.9748 24.0428 96.9748 24.9704ZM115.651 26.4733C114.995 24.9009 114.667 23.0667 114.667 20.9707V20.5522C114.667 18.2574 114.995 16.2536 115.651 14.5422C116.307 12.8308 117.256 11.4976 118.497 10.5425C119.738 9.58742 121.214 9.10908 122.925 9.10908C124.158 9.10908 125.236 9.34502 126.159 9.81528C127.08 10.2872 127.873 10.9594 128.537 11.8353V3.68083L125.373 3.0829V-0.000488281H133.552V27.3832L136.537 27.9795V31.0435H129.215L128.817 28.4368C128.14 29.4323 127.314 30.1854 126.34 30.696C125.365 31.2067 124.234 31.462 122.946 31.462C121.209 31.462 119.722 31.0241 118.489 30.1482C117.256 29.2723 116.311 28.049 115.653 26.4766L115.651 26.4733ZM119.682 20.9707C119.682 22.9601 120.05 24.547 120.785 25.7267C121.521 26.908 122.712 27.4979 124.357 27.4979C125.312 27.4979 126.134 27.2894 126.824 26.8709C127.515 26.4523 128.085 25.8463 128.536 25.0496V15.557C128.098 14.7878 127.531 14.1802 126.834 13.7358C126.138 13.2914 125.325 13.0684 124.397 13.0684C123.31 13.0684 122.418 13.3835 121.721 14.0137C121.025 14.644 120.511 15.5199 120.179 16.6414C119.848 17.7629 119.682 19.0654 119.682 20.5522V20.9707ZM139.99 26.3247C139.161 24.7199 138.746 22.8809 138.746 20.8124V19.9769C138.746 17.8809 139.155 16.0144 139.971 14.3757C140.787 12.7371 141.912 11.4507 143.344 10.515C144.777 9.57934 146.408 9.11231 148.239 9.11231C150.189 9.11231 151.823 9.50339 153.143 10.2872C154.463 11.0709 155.462 12.1812 156.138 13.621C156.815 15.0609 157.153 16.7885 157.153 18.8053V21.6705H143.938L143.898 21.7707C143.951 22.8987 144.187 23.9006 144.604 24.7765C145.023 25.6524 145.619 26.3424 146.395 26.8466C147.17 27.3508 148.116 27.6029 149.231 27.6029C150.346 27.6029 151.459 27.443 152.414 27.1262C153.369 26.8079 154.252 26.357 155.061 25.772L156.634 28.9168C155.784 29.6327 154.704 30.2371 153.39 30.7283C152.077 31.2196 150.545 31.4653 148.793 31.4653C146.763 31.4653 144.995 31.0111 143.489 30.1013C141.983 29.1931 140.816 27.9358 139.987 26.3311L139.99 26.3247ZM143.961 18.0457L144.021 18.1443H152.359V17.6272C152.359 16.685 152.217 15.8592 151.931 15.1498C151.645 14.4404 151.201 13.8861 150.598 13.4885C149.994 13.091 149.228 12.8922 148.3 12.8922C147.49 12.8922 146.781 13.1185 146.17 13.5693C145.559 14.0202 145.073 14.6343 144.707 15.41C144.342 16.1857 144.093 17.0648 143.961 18.0473V18.0457ZM163.205 27.3783L160.22 27.9746V31.0386H171.206V27.9746L168.221 27.3783V16.1534C168.618 15.4245 169.113 14.8541 169.703 14.442C170.292 14.0315 171.046 13.8521 171.962 13.9038L174.767 14.0638L175.344 9.42744C175.079 9.34825 174.737 9.27553 174.32 9.20766C173.901 9.1414 173.507 9.10908 173.135 9.10908C172.022 9.10908 171.049 9.41451 170.22 10.0254C169.391 10.6362 168.691 11.5121 168.121 12.653L168.08 12.2151L167.822 9.50824H160.06V12.5932L163.205 13.1896V27.3783ZM179.363 27.3783L176.357 27.9746V31.0386H187.164V27.9746L184.358 27.3783V24.5616L187.421 21.6883L191.941 27.6563L192.001 27.7355L190.11 28.0732V31.0386H200.459V27.9746L197.594 27.4171L190.75 18.5661L196.44 13.2267L199.207 12.59V9.50501H188.819V12.569L191.068 12.868L191.008 12.9472L184.362 19.2545V-0.000488281H176.183V3.08452L179.367 3.68245V27.3832H179.363V27.3783ZM202.746 26.1938C201.949 24.5422 201.551 22.6417 201.551 20.4924V20.0755C201.551 17.9391 201.949 16.0483 202.746 14.4032C203.542 12.7581 204.683 11.4653 206.168 10.5231C207.654 9.58096 209.418 9.11069 211.462 9.11069C213.507 9.11069 215.31 9.57773 216.795 10.5134C218.282 11.4491 219.423 12.7387 220.218 14.3838C221.015 16.0289 221.412 17.9261 221.412 20.0755V20.4924C221.412 22.6417 221.015 24.5422 220.218 26.1938C219.421 27.8453 218.284 29.1366 216.805 30.0642C215.325 30.9934 213.558 31.4572 211.501 31.4572C209.444 31.4572 207.654 30.9934 206.168 30.0642C204.682 29.1349 203.541 27.8453 202.746 26.1938ZM206.568 20.4924C206.568 21.8854 206.744 23.1168 207.094 24.185C207.445 25.2532 207.99 26.0887 208.727 26.6915C209.463 27.2959 210.388 27.5965 211.503 27.5965C212.618 27.5965 213.536 27.2943 214.26 26.6915C214.982 26.0871 215.524 25.2532 215.882 24.185C216.241 23.1168 216.419 21.887 216.419 20.4924V20.0755C216.419 18.6954 216.239 17.4753 215.882 16.4135C215.524 15.3518 214.981 14.5163 214.25 13.9055C213.52 13.2962 212.592 12.9908 211.464 12.9908C210.336 12.9908 209.447 13.2962 208.718 13.9055C207.988 14.5163 207.448 15.3518 207.096 16.4135C206.744 17.4753 206.569 18.6954 206.569 20.0755V20.4924H206.568ZM227.403 27.3783L224.418 27.9746V31.0386H235.404V27.9746L232.419 27.3783V16.1534C232.817 15.4245 233.311 14.8541 233.901 14.442C234.491 14.0315 235.244 13.8521 236.16 13.9038L238.966 14.0638L239.543 9.42744C239.278 9.34825 238.935 9.27553 238.518 9.20766C238.1 9.1414 237.705 9.10908 237.334 9.10908C236.22 9.10908 235.247 9.41451 234.418 10.0254C233.589 10.6362 232.889 11.5121 232.319 12.653L232.279 12.2151L232.02 9.50824H224.258V12.5932L227.403 13.1896V27.3783ZM244.219 13.1896L241.055 12.5932V9.50824H248.717L249.035 12.0551C249.698 11.113 250.507 10.3874 251.462 9.87669C252.418 9.36603 253.546 9.11069 254.846 9.11069C256.597 9.11069 258.096 9.58742 259.344 10.5441C260.59 11.4992 261.543 12.8324 262.199 14.5438C262.855 16.2552 263.184 18.259 263.184 20.5538V20.9724C263.184 23.0684 262.852 24.9026 262.188 26.4749C261.524 28.0473 260.572 29.2707 259.333 30.1466C258.091 31.0225 256.597 31.4604 254.845 31.4604C253.61 31.4604 252.529 31.2455 251.601 30.814C250.672 30.3825 249.877 29.749 249.213 28.9135V35.6395L252.277 36.2358V39.3208H241.312V36.2358L244.218 35.6395V13.1928H244.219V13.1896ZM249.215 25.3308C249.64 26.0612 250.191 26.622 250.866 27.0131C251.543 27.4042 252.366 27.5997 253.334 27.5997C254.979 27.5997 256.196 26.9921 256.986 25.7784C257.775 24.5648 258.171 22.9633 258.171 20.9724V20.5538C258.171 19.0687 257.995 17.7645 257.644 16.643C257.292 15.5215 256.755 14.6472 256.033 14.0153C255.31 13.3851 254.397 13.07 253.297 13.07C252.367 13.07 251.563 13.2784 250.879 13.697C250.196 14.1155 249.641 14.7022 249.218 15.4585V25.3292H249.215V25.3308ZM277.781 27.144C277.191 27.6482 276.178 27.9003 274.746 27.9003C274.003 27.9003 273.331 27.8308 272.726 27.6918C272.122 27.5528 271.535 27.3573 270.965 27.1052L270.208 24.0008H266.606L266.666 29.6925C268.006 30.2759 269.342 30.717 270.675 31.016C272.009 31.315 273.445 31.4636 274.984 31.4636C277.877 31.4636 280.026 30.8463 281.432 29.6133C282.838 28.3786 283.541 26.8014 283.541 24.8767C283.541 23.1524 282.936 21.7658 281.729 20.717C280.522 19.6698 278.518 18.8198 275.719 18.1702C274.578 17.9051 273.712 17.6304 273.122 17.3444C272.532 17.06 272.133 16.7448 271.928 16.399C271.723 16.0548 271.619 15.6685 271.619 15.2451C271.619 14.5163 271.938 13.9087 272.574 13.4239C273.211 12.9391 274.079 12.6967 275.181 12.6967C275.884 12.6967 276.508 12.7759 277.051 12.9358C277.595 13.0958 278.072 13.3205 278.484 13.613L279.101 16.4588H282.663L282.544 10.9869C281.655 10.4294 280.577 9.98174 279.31 9.64398C278.043 9.30623 276.593 9.13655 274.963 9.13655C273.172 9.13655 271.663 9.4242 270.435 10.0011C269.208 10.5781 268.279 11.3441 267.649 12.2991C267.018 13.2542 266.703 14.3224 266.703 15.5021C266.703 17.2135 267.309 18.6033 268.525 19.6715C269.738 20.7397 271.632 21.5525 274.207 22.1084C275.944 22.4801 277.122 22.9213 277.739 23.432C278.356 23.9426 278.665 24.5567 278.665 25.2726C278.665 25.9885 278.369 26.6398 277.78 27.144H277.781ZM287.731 26.3279C286.902 24.7232 286.487 22.8841 286.487 20.8156V19.9801C286.487 17.8841 286.896 16.0176 287.71 14.379C288.526 12.7403 289.651 11.4539 291.083 10.5183C292.516 9.58258 294.147 9.11554 295.978 9.11554C297.928 9.11554 299.562 9.50662 300.882 10.2904C302.203 11.0742 303.201 12.1844 303.877 13.6243C304.554 15.0642 304.892 16.7917 304.892 18.8085V21.6737H291.677L291.637 21.7739C291.69 22.9019 291.926 23.9038 292.343 24.7797C292.762 25.6556 293.358 26.3457 294.134 26.8499C294.909 27.3541 295.855 27.6062 296.97 27.6062C298.085 27.6062 299.198 27.4462 300.154 27.1294C301.109 26.8111 301.991 26.3602 302.801 25.7752L304.373 28.92C303.523 29.6359 302.443 30.2403 301.13 30.7316C299.816 31.2228 298.284 31.4685 296.534 31.4685C294.504 31.4685 292.736 31.0144 291.23 30.1046C289.724 29.1963 288.557 27.9391 287.728 26.3344L287.731 26.3279ZM291.702 18.049L291.761 18.1475H300.1V17.6304C300.1 16.6883 299.958 15.8625 299.672 15.153C299.386 14.4436 298.941 13.8893 298.339 13.4918C297.734 13.0942 296.968 12.8954 296.041 12.8954C295.231 12.8954 294.522 13.1217 293.911 13.5726C293.3 14.0234 292.814 14.6375 292.448 15.4132C292.083 16.1889 291.834 17.068 291.702 18.0506V18.049ZM310.029 24.9526C310.029 27.2086 310.54 28.8505 311.561 29.8783C312.582 30.9061 314.009 31.42 315.84 31.42C316.53 31.42 317.25 31.3602 317.999 31.2406C318.749 31.121 319.415 30.9756 320 30.8027L319.483 27.2797C319.205 27.346 318.836 27.4122 318.379 27.4785C317.922 27.5448 317.506 27.5771 317.135 27.5771C316.485 27.5771 315.971 27.3686 315.593 26.9501C315.215 26.5331 315.026 25.8657 315.026 24.951V13.091H319.284V9.50985H315.026V4.27876H310.031V9.51147H306.886V13.0926H310.031V24.9559L310.029 24.9526ZM6.45604 46.3974C6.02941 46.3974 5.67227 46.2697 5.38461 46.0128C5.09696 45.7574 4.95313 45.4294 4.95313 45.027C4.95313 44.6246 5.09858 44.2982 5.38785 44.0299C5.67712 43.7616 6.03426 43.6275 6.45604 43.6275C6.87783 43.6275 7.21881 43.7616 7.50162 44.0299C7.78604 44.2982 7.92825 44.6311 7.92825 45.027C7.92825 45.4229 7.78604 45.7558 7.50162 46.0128C7.21719 46.2681 6.86975 46.3974 6.45604 46.3974ZM6.01164 45.4762C6.12961 45.591 6.27666 45.6492 6.45604 45.6492C6.63542 45.6492 6.77279 45.5926 6.88268 45.4762C6.99095 45.3615 7.04589 45.2112 7.04589 45.0286C7.04589 44.846 6.99095 44.6892 6.88268 44.5713C6.77279 44.4533 6.63219 44.3951 6.45604 44.3951C6.2799 44.3951 6.12961 44.4533 6.01164 44.5713C5.89366 44.6892 5.83549 44.8411 5.83549 45.0286C5.83549 45.2161 5.89366 45.3615 6.01164 45.4762ZM10.3394 54.8428L11.0052 54.9397V56.0596H7.83129V54.9397L8.4777 54.825L8.06723 53.5451H4.79315L4.38268 54.825L5.02909 54.9397V56.0596H1.85682V54.9397L2.52101 54.8428L5.48481 46.7432H7.39657L10.3394 54.8428ZM7.62767 52.1682L6.54008 48.9749L6.4512 48.6938H6.41241L6.31706 48.9943L5.23594 52.1682H7.62928H7.62767ZM17.5953 50.633C17.117 50.4762 16.7437 50.3276 16.4722 50.1886C16.2023 50.0496 16.0084 49.9025 15.8937 49.7474C15.7789 49.5923 15.7207 49.4097 15.7207 49.1996C15.7207 48.9572 15.787 48.7503 15.9195 48.579C16.052 48.4093 16.2314 48.2784 16.4593 48.1896C16.6871 48.1007 16.9505 48.0554 17.2495 48.0554C17.6002 48.0554 17.9121 48.0942 18.1868 48.1702C18.4632 48.2477 18.6813 48.3366 18.8429 48.4384L19.0869 49.7183H20.488V47.6191C20.0873 47.2991 19.6105 47.0503 19.0579 46.8709C18.5052 46.6915 17.8717 46.6058 17.1542 46.6155C16.5061 46.6236 15.9341 46.7384 15.4396 46.9614C14.9451 47.1828 14.5572 47.4866 14.2776 47.8728C13.9981 48.259 13.8591 48.7035 13.8591 49.2077C13.8591 49.7119 13.9787 50.1498 14.2211 50.5102C14.4619 50.8706 14.8239 51.1792 15.3087 51.4378C15.7935 51.6963 16.4043 51.9339 17.1429 52.1504C17.5695 52.283 17.9072 52.4203 18.1561 52.5642C18.4066 52.7064 18.5844 52.8647 18.6926 53.0377C18.8025 53.2106 18.8558 53.4077 18.8558 53.6291C18.8558 53.8634 18.7944 54.0671 18.6732 54.24C18.552 54.4129 18.3743 54.5454 18.1416 54.6408C17.9105 54.7345 17.6244 54.7813 17.2883 54.7813C16.8924 54.7813 16.5255 54.7313 16.1878 54.6311C15.8516 54.5309 15.5866 54.4 15.3943 54.2384L15.1955 52.9132H13.7492V55.166C14.2954 55.5457 14.8497 55.8124 15.4121 55.9659C15.9745 56.1194 16.5999 56.1954 17.2867 56.1954C17.9735 56.1954 18.5811 56.0903 19.0966 55.8819C19.6138 55.6734 20.0145 55.376 20.299 54.9898C20.585 54.6036 20.7272 54.1463 20.7272 53.6178C20.7272 52.8534 20.4622 52.2377 19.9305 51.7691C19.4005 51.3004 18.6199 50.9223 17.5921 50.6362L17.5953 50.633ZM29.0708 47.8696L30.0501 47.9973L28.2207 53.5063L28.0866 54.0057H28.0478L27.9072 53.4934L26.0779 47.9973L26.915 47.8696V46.7432H23.2111V47.8696L24.0417 47.9714L27.0362 56.058H28.9496L31.7582 47.9714L32.6018 47.8696V46.7432H29.0708V47.8696ZM41.0601 54.6262H38.0527V51.9646H41.2072V50.5247H38.0527V48.1831H40.9066L40.9906 49.2578H42.424V46.7432H35.1939V47.8696L36.1862 48.0619V54.7474L35.1939 54.9397V56.0596H42.5646V53.5128H41.1441L41.0601 54.6262ZM45.3959 47.8696L46.3882 48.0619V54.7474L45.3959 54.9397V56.0596H49.2469V54.9397L48.2547 54.7474V48.0619L49.2469 47.8696V46.7432H45.3959V47.8696ZM57.7796 54.6262H54.7721V51.9646H57.9266V50.5247H54.7721V48.1831H57.626L57.7101 49.2578H59.1435V46.7432H51.9134V47.8696L52.9056 48.0619V54.7474L51.9134 54.9397V56.0596H59.2841V53.5128H57.8636L57.7796 54.6262ZM67.9056 46.7432V47.8696L69.0966 48.0619V53.1993L69.0578 53.2057L65.0016 46.7432H62.1154V47.8696L63.1076 48.0619V54.7474L62.1154 54.9397V56.0596H65.9728V54.9397L64.777 54.7474V49.6666L64.8158 49.6601L68.9625 56.058H70.766V48.0603L71.7647 47.868V46.7416H67.9056V46.7432ZM74.6122 55.9013C74.6122 56.294 74.5669 56.6479 74.4764 56.9662C74.3859 57.2846 74.2582 57.5916 74.0918 57.8906L75.0129 58.3899C75.3668 58.0781 75.6658 57.6951 75.9114 57.2409C76.1571 56.7868 76.2799 56.3101 76.2799 55.8108L76.2864 54.505H74.6105V55.8996L74.6122 55.9013ZM90.2311 46.7464V47.8728L91.4221 48.0651V53.2025L91.3833 53.209L87.3271 46.7464H84.4408V47.8728L85.4331 48.0651V54.7506L84.4408 54.943V56.0629H88.2983V54.943L87.1024 54.7506V49.6698L87.1412 49.6634L91.288 56.0612H93.0915V48.0635L94.0902 47.8712V46.7448H90.2311V46.7464ZM102.161 47.8744L103.185 47.9827L101.464 50.9707L101.324 51.2519L101.285 51.2584L101.144 50.9578L99.596 47.9827L100.357 47.8744V46.7481H96.6403V47.8744L97.5355 48.0021L100.301 52.8712V54.7523L99.3019 54.9446V56.0645H103.161V54.9446L102.162 54.7523V52.7241L104.888 48.0021L105.81 47.8744V46.7481H102.162V47.8744H102.161ZM116.197 52.3945C116.32 52.687 116.383 53.0053 116.383 53.3512C116.383 54.2432 116.089 54.9171 115.501 55.376C114.913 55.835 114.079 56.0645 112.999 56.0645H108.418V54.9446L109.41 54.7523V48.0667L108.418 47.8744V46.7481H112.558C113.654 46.7481 114.509 46.9614 115.124 47.388C115.739 47.8146 116.046 48.453 116.046 49.3014C116.046 49.7329 115.932 50.1175 115.703 50.4569C115.475 50.7962 115.142 51.0499 114.707 51.2212C115.079 51.302 115.389 51.4442 115.638 51.6495C115.889 51.8547 116.075 52.102 116.199 52.3945H116.197ZM111.277 50.6508H112.62C113.119 50.6508 113.504 50.549 113.772 50.3437C114.042 50.1385 114.176 49.8411 114.176 49.4484C114.176 49.017 114.04 48.7002 113.77 48.495C113.499 48.2898 113.095 48.1879 112.558 48.1879H111.278V50.6508H111.277ZM114.52 53.3512C114.52 53.0441 114.472 52.7856 114.373 52.5771C114.276 52.3686 114.126 52.2102 113.922 52.1036C113.72 51.9969 113.458 51.9436 113.138 51.9436H111.277V54.6311H112.998C113.492 54.6311 113.87 54.5228 114.131 54.3079C114.391 54.0929 114.52 53.7729 114.52 53.3512ZM127.14 49.4581C127.343 50.0318 127.443 50.6572 127.443 51.336V51.4766C127.443 52.1585 127.342 52.7872 127.14 53.3609C126.938 53.9346 126.648 54.4339 126.272 54.8573C125.897 55.2807 125.451 55.612 124.932 55.8463C124.413 56.0806 123.838 56.1986 123.208 56.1986C122.578 56.1986 122.009 56.0806 121.493 55.8463C120.976 55.612 120.532 55.2823 120.158 54.8573C119.785 54.4323 119.497 53.9346 119.297 53.3609C119.097 52.7872 118.996 52.1585 118.996 51.4766V51.336C118.996 50.6572 119.097 50.0318 119.297 49.4581C119.497 48.8844 119.783 48.3835 120.155 47.9585C120.525 47.5318 120.97 47.2022 121.485 46.9662C122.001 46.7319 122.573 46.6139 123.2 46.6139C123.827 46.6139 124.407 46.7319 124.927 46.9662C125.448 47.2006 125.895 47.5318 126.27 47.9585C126.647 48.3851 126.934 48.8844 127.138 49.4581H127.14ZM125.582 51.323C125.582 50.6799 125.493 50.1126 125.313 49.6246C125.134 49.1366 124.869 48.7552 124.517 48.4821C124.165 48.209 123.727 48.0716 123.203 48.0716C122.679 48.0716 122.25 48.2073 121.904 48.4772C121.558 48.7487 121.299 49.1269 121.126 49.6133C120.953 50.0997 120.866 50.6685 120.866 51.3214V51.4749C120.866 52.1278 120.953 52.6999 121.126 53.1896C121.299 53.6792 121.558 54.0622 121.907 54.3353C122.254 54.6084 122.687 54.7442 123.209 54.7442C123.731 54.7442 124.177 54.6084 124.528 54.3353C124.877 54.0622 125.141 53.6808 125.318 53.1896C125.494 52.6999 125.583 52.1278 125.583 51.4749V51.3214H125.582V51.323ZM137.39 54.7603L138.184 54.9462V56.0661H135.918L134.484 52.3864H132.783V54.7539L133.782 54.9462V56.0661H129.924V54.9462L130.916 54.7539V48.0684L129.924 47.876V46.7497H134.339C135.057 46.7497 135.669 46.8612 136.181 47.0826C136.694 47.304 137.086 47.6223 137.361 48.036C137.636 48.4497 137.773 48.9459 137.773 49.526C137.773 50.0722 137.637 50.5603 137.364 50.9918C137.091 51.4232 136.711 51.7626 136.225 52.0082C136.218 52.0115 136.21 52.0147 136.202 52.0179L137.388 54.7603H137.39ZM134.307 50.9465C134.845 50.9465 135.246 50.8318 135.512 50.6039C135.779 50.3761 135.913 50.0448 135.913 49.6084C135.913 49.1721 135.781 48.8327 135.516 48.5758C135.252 48.3172 134.859 48.1879 134.339 48.1879H132.784V50.9449H134.308L134.307 50.9465ZM145.297 52.7645L146.627 52.8664V54.4468C146.448 54.5373 146.222 54.6117 145.945 54.6747C145.671 54.7361 145.368 54.7668 145.04 54.7668C144.481 54.7668 144.011 54.6391 143.626 54.3822C143.242 54.1269 142.951 53.7649 142.754 53.2978C142.555 52.8308 142.456 52.2813 142.456 51.6511V51.3182C142.456 50.6702 142.557 50.1013 142.757 49.61C142.957 49.1204 143.247 48.7374 143.625 48.4643C144.003 48.1912 144.451 48.0554 144.971 48.0554C145.333 48.0554 145.656 48.0991 145.937 48.1863C146.218 48.2736 146.441 48.3899 146.608 48.5354L146.87 49.783H148.253V47.7161C147.818 47.3492 147.306 47.0745 146.718 46.8903C146.13 46.706 145.499 46.6155 144.83 46.6155C143.964 46.6155 143.214 46.8143 142.581 47.2135C141.947 47.6126 141.458 48.1653 141.112 48.8748C140.766 49.5826 140.593 50.4019 140.593 51.3311V51.6511C140.593 52.5512 140.766 53.3431 141.113 54.025C141.461 54.707 141.962 55.2403 142.615 55.6249C143.268 56.0095 144.056 56.2002 144.982 56.2002C145.75 56.2002 146.425 56.1113 147.007 55.932C147.59 55.7526 148.087 55.515 148.502 55.2225V51.4539H145.296V52.7662H145.297V52.7645ZM164.779 49.4581C164.982 50.0318 165.082 50.6572 165.082 51.336V51.4766C165.082 52.1585 164.981 52.7872 164.779 53.3609C164.577 53.9346 164.287 54.4339 163.911 54.8573C163.536 55.2807 163.09 55.612 162.571 55.8463C162.052 56.0806 161.477 56.1986 160.847 56.1986C160.217 56.1986 159.648 56.0806 159.132 55.8463C158.615 55.612 158.171 55.2823 157.797 54.8573C157.424 54.4323 157.136 53.9346 156.936 53.3609C156.736 52.7872 156.635 52.1585 156.635 51.4766V51.336C156.635 50.6572 156.736 50.0318 156.936 49.4581C157.136 48.8844 157.422 48.3835 157.794 47.9585C158.164 47.5318 158.609 47.2022 159.124 46.9662C159.64 46.7319 160.212 46.6139 160.839 46.6139C161.466 46.6139 162.046 46.7319 162.566 46.9662C163.087 47.2006 163.534 47.5318 163.909 47.9585C164.286 48.3851 164.573 48.8844 164.777 49.4581H164.779ZM163.221 51.323C163.221 50.6799 163.132 50.1126 162.952 49.6246C162.773 49.1366 162.508 48.7552 162.156 48.4821C161.803 48.209 161.366 48.0716 160.842 48.0716C160.318 48.0716 159.888 48.2073 159.543 48.4772C159.197 48.7487 158.938 49.1269 158.765 49.6133C158.592 50.0997 158.505 50.6685 158.505 51.3214V51.4749C158.505 52.1278 158.592 52.6999 158.765 53.1896C158.938 53.6792 159.197 54.0622 159.546 54.3353C159.893 54.6084 160.326 54.7442 160.848 54.7442C161.37 54.7442 161.816 54.6084 162.167 54.3353C162.516 54.0622 162.78 53.6808 162.957 53.1896C163.133 52.6999 163.222 52.1278 163.222 51.4749V51.3214H163.221V51.323ZM172.476 52.7645L173.806 52.8664V54.4468C173.626 54.5373 173.4 54.6117 173.125 54.6747C172.849 54.7361 172.548 54.7668 172.22 54.7668C171.661 54.7668 171.191 54.6391 170.806 54.3822C170.422 54.1269 170.131 53.7649 169.934 53.2978C169.737 52.8308 169.636 52.2813 169.636 51.6511V51.3182C169.636 50.6702 169.737 50.1013 169.937 49.61C170.137 49.1204 170.427 48.7374 170.805 48.4643C171.181 48.1912 171.631 48.0554 172.151 48.0554C172.513 48.0554 172.836 48.0991 173.117 48.1863C173.398 48.2736 173.623 48.3899 173.79 48.5354L174.051 49.783H175.433V47.7161C174.998 47.3492 174.486 47.0745 173.898 46.8903C173.31 46.706 172.681 46.6155 172.01 46.6155C171.146 46.6155 170.394 46.8143 169.761 47.2135C169.127 47.6126 168.638 48.1653 168.292 48.8748C167.946 49.5826 167.773 50.4019 167.773 51.3311V51.6511C167.773 52.5512 167.946 53.3431 168.295 54.025C168.643 54.707 169.142 55.2403 169.796 55.6249C170.449 56.0095 171.238 56.2002 172.164 56.2002C172.931 56.2002 173.607 56.1113 174.189 55.932C174.771 55.7526 175.268 55.515 175.682 55.2225V51.4539H172.476V52.7662V52.7645ZM183.759 47.8744L184.751 48.0667V54.7523L183.759 54.9446V56.0645H187.61V54.9446L186.618 54.7523V48.0667L187.61 47.8744V46.7481H183.759V47.8744ZM195.763 54.6311H193.133V48.0667L194.26 47.8744V46.7481H190.275V47.8744L191.267 48.0667V54.7523L190.275 54.9446V56.0645H197.28V53.2687H195.853L195.763 54.6311ZM208.358 54.8492L209.024 54.9462V56.0661H205.85V54.9462L206.496 54.8314L206.086 53.5516H202.81L202.4 54.8314L203.046 54.9462V56.0661H199.872V54.9462L200.537 54.8492L203.5 46.7497H205.412L208.355 54.8492H208.358ZM205.646 52.1747L204.559 48.9814L204.47 48.7002H204.431L204.336 49.0008L203.255 52.1747H205.648H205.646ZM220.895 50.6395C220.417 50.4827 220.044 50.334 219.772 50.195C219.502 50.0561 219.308 49.909 219.194 49.7539C219.079 49.5987 219.021 49.4161 219.021 49.206C219.021 48.9636 219.087 48.7568 219.219 48.5855C219.352 48.4158 219.531 48.2849 219.759 48.196C219.987 48.1071 220.25 48.0619 220.549 48.0619C220.9 48.0619 221.212 48.1007 221.487 48.1766C221.763 48.2542 221.981 48.3431 222.143 48.4449L222.387 49.7248H223.788V47.6256C223.387 47.3056 222.91 47.0567 222.358 46.8773C221.805 46.698 221.172 46.6123 220.454 46.622C219.806 46.6301 219.234 46.7448 218.739 46.9678C218.245 47.1892 217.857 47.493 217.578 47.8793C217.298 48.2655 217.159 48.7099 217.159 49.2141C217.159 49.7183 217.279 50.1563 217.521 50.5166C217.762 50.877 218.124 51.1857 218.609 51.4442C219.093 51.7028 219.704 51.9404 220.443 52.1569C220.869 52.2894 221.207 52.4268 221.456 52.5706C221.707 52.7128 221.884 52.8712 221.993 53.0441C222.102 53.217 222.156 53.4142 222.156 53.6356C222.156 53.8699 222.094 54.0735 221.973 54.2464C221.852 54.4194 221.674 54.5519 221.441 54.6472C221.21 54.7409 220.924 54.7878 220.588 54.7878C220.192 54.7878 219.825 54.7377 219.488 54.6375C219.152 54.5373 218.887 54.4064 218.694 54.2448L218.495 52.9197H217.049V55.1724C217.595 55.5522 218.15 55.8188 218.712 55.9724C219.274 56.1259 219.9 56.2018 220.587 56.2018C221.273 56.2018 221.881 56.0968 222.397 55.8883C222.914 55.6799 223.314 55.3825 223.599 54.9963C223.885 54.6101 224.027 54.1527 224.027 53.6243C224.027 52.8599 223.762 52.2442 223.23 51.7755C222.7 51.3069 221.92 50.9287 220.892 50.6427L220.895 50.6395ZM232.046 50.7865L234.741 48.0473L235.619 47.8744V46.7481H231.786V47.8744L232.707 47.952L232.694 47.9714L229.488 51.2762V48.0667L230.435 47.8744V46.7481H226.627V47.8744L227.62 48.0667V54.7523L226.627 54.9446V56.0645H230.435V54.9446L229.488 54.7523V53.3835L230.813 52.0373L232.867 54.867H232.86L231.991 54.9446V56.0645H235.95V54.9446L235.036 54.7846L232.046 50.7865ZM246.157 49.4581C246.361 50.0318 246.461 50.6572 246.461 51.336V51.4766C246.461 52.1585 246.359 52.7872 246.157 53.3609C245.955 53.9346 245.666 54.4339 245.289 54.8573C244.914 55.2807 244.468 55.612 243.95 55.8463C243.431 56.0806 242.856 56.1986 242.225 56.1986C241.595 56.1986 241.026 56.0806 240.511 55.8463C239.994 55.612 239.549 55.2823 239.176 54.8573C238.803 54.4323 238.515 53.9346 238.314 53.3609C238.114 52.7872 238.014 52.1585 238.014 51.4766V51.336C238.014 50.6572 238.114 50.0318 238.314 49.4581C238.515 48.8844 238.801 48.3835 239.173 47.9585C239.543 47.5318 239.987 47.2022 240.503 46.9662C241.018 46.7319 241.59 46.6139 242.217 46.6139C242.844 46.6139 243.424 46.7319 243.945 46.9662C244.465 47.2006 244.913 47.5318 245.288 47.9585C245.664 48.3851 245.952 48.8844 246.155 49.4581H246.157ZM244.599 51.323C244.599 50.6799 244.51 50.1126 244.331 49.6246C244.152 49.1366 243.887 48.7552 243.534 48.4821C243.182 48.209 242.744 48.0716 242.22 48.0716C241.697 48.0716 241.267 48.2073 240.921 48.4772C240.575 48.7487 240.317 49.1269 240.144 49.6133C239.971 50.0997 239.884 50.6685 239.884 51.3214V51.4749C239.884 52.1278 239.971 52.6999 240.144 53.1896C240.317 53.6792 240.575 54.0622 240.924 54.3353C241.272 54.6084 241.705 54.7442 242.227 54.7442C242.749 54.7442 243.195 54.6084 243.546 54.3353C243.895 54.0622 244.158 53.6808 244.336 53.1896C244.512 52.6999 244.601 52.1278 244.601 51.4749V51.3214L244.599 51.323ZM254.431 54.6327H251.8V48.0684L252.927 47.876V46.7497H248.941V47.876L249.934 48.0684V54.7539L248.941 54.9462V56.0661H255.947V53.2704H254.52L254.431 54.6327ZM264.459 54.6327H261.451V51.9711H264.606V50.5312H261.451V48.1896H264.305L264.389 49.2642H265.823V46.7497H258.592V47.876L259.585 48.0684V54.7539L258.592 54.9462V56.0661H265.963V53.5192H264.543L264.459 54.6327ZM274.211 50.7881L276.909 48.049L277.784 47.876V46.7497H273.953V47.876L274.874 47.9536L274.861 47.973L271.655 51.2778V48.07L272.602 47.8777V46.7513H268.794V47.8777L269.787 48.07V54.7555L268.794 54.9478V56.0677H272.602V54.9478L271.655 54.7555V53.3867L272.98 52.0406L275.034 54.8702H275.027L274.156 54.9478V56.0677H278.117V54.9478L277.203 54.7878L274.211 50.7898V50.7881ZM288.323 49.4581C288.525 50.0318 288.626 50.6572 288.626 51.336V51.4766C288.626 52.1585 288.525 52.7872 288.323 53.3609C288.119 53.9346 287.83 54.4339 287.455 54.8573C287.08 55.2807 286.632 55.612 286.113 55.8463C285.595 56.0806 285.021 56.1986 284.389 56.1986C283.757 56.1986 283.192 56.0806 282.674 55.8463C282.159 55.612 281.715 55.2823 281.341 54.8573C280.968 54.4323 280.68 53.9346 280.48 53.3609C280.28 52.7872 280.179 52.1585 280.179 51.4766V51.336C280.179 50.6572 280.28 50.0318 280.48 49.4581C280.68 48.8844 280.966 48.3835 281.338 47.9585C281.71 47.5334 282.153 47.2022 282.668 46.9662C283.184 46.7303 283.756 46.6139 284.383 46.6139C285.01 46.6139 285.59 46.7319 286.11 46.9662C286.631 47.2006 287.078 47.5318 287.453 47.9585C287.828 48.3851 288.117 48.8844 288.321 49.4581H288.323ZM286.765 51.323C286.765 50.6799 286.676 50.1126 286.496 49.6246C286.317 49.1366 286.052 48.7552 285.7 48.4821C285.347 48.209 284.909 48.0716 284.386 48.0716C283.862 48.0716 283.432 48.2073 283.087 48.4772C282.741 48.7487 282.482 49.1269 282.309 49.6133C282.136 50.0997 282.051 50.6685 282.051 51.3214V51.4749C282.051 52.1278 282.136 52.6999 282.309 53.1896C282.482 53.6792 282.742 54.0622 283.09 54.3353C283.437 54.6084 283.872 54.7442 284.392 54.7442C284.913 54.7442 285.36 54.6084 285.711 54.3353C286.062 54.0622 286.324 53.6808 286.501 53.1896C286.679 52.6999 286.766 52.1278 286.766 51.4749V51.3214L286.765 51.323ZM298.573 54.7603L299.366 54.9462V56.0661H297.101L295.669 52.3864H293.967V54.7539L294.964 54.9462V56.0661H291.107V54.9462L292.099 54.7539V48.0684L291.107 47.876V46.7497H295.522C296.239 46.7497 296.852 46.8612 297.364 47.0826C297.877 47.304 298.269 47.6223 298.544 48.036C298.82 48.4497 298.958 48.9459 298.958 49.526C298.958 50.0722 298.82 50.5603 298.547 50.9918C298.274 51.4232 297.894 51.7626 297.408 52.0082C297.401 52.0115 297.393 52.0147 297.387 52.0179L298.573 54.7603ZM295.49 50.9465C296.026 50.9465 296.429 50.8318 296.695 50.6039C296.962 50.3761 297.096 50.0448 297.096 49.6084C297.096 49.1721 296.963 48.8327 296.7 48.5758C296.435 48.3172 296.044 48.1879 295.522 48.1879H293.967V50.9449H295.491H295.49V50.9465ZM309.509 48.1686C309.787 48.6146 309.926 49.1333 309.926 49.7264C309.926 50.3195 309.787 50.8382 309.509 51.2843C309.231 51.7303 308.835 52.0761 308.318 52.3217C307.802 52.5674 307.188 52.6902 306.475 52.6902H304.901V54.7571L305.9 54.9494V56.0693H302.043V54.9494L303.035 54.7571V48.0716L302.043 47.8793V46.7529H306.475C307.188 46.7529 307.802 46.8773 308.318 47.1262C308.835 47.3767 309.231 47.7241 309.509 48.1686ZM308.056 49.7393C308.056 49.2917 307.922 48.9216 307.655 48.6291C307.388 48.3366 306.996 48.1912 306.475 48.1912H304.901V51.2503H306.475C306.996 51.2503 307.388 51.1081 307.655 50.8253C307.922 50.5409 308.056 50.1805 308.056 49.7409V49.7393ZM316.445 50.6395C315.966 50.4827 315.593 50.334 315.322 50.195C315.05 50.0561 314.858 49.909 314.743 49.7539C314.628 49.5987 314.57 49.4161 314.57 49.206C314.57 48.9636 314.636 48.7568 314.767 48.5855C314.9 48.4158 315.081 48.2849 315.309 48.196C315.536 48.1071 315.8 48.0619 316.099 48.0619C316.448 48.0619 316.761 48.1007 317.036 48.1766C317.311 48.2542 317.531 48.3431 317.692 48.4449L317.935 49.7248H319.336V47.6256C318.935 47.3056 318.458 47.0567 317.906 46.8773C317.353 46.698 316.719 46.6123 316.002 46.622C315.354 46.6301 314.782 46.7448 314.287 46.9678C313.793 47.1892 313.407 47.493 313.127 47.8793C312.847 48.2655 312.707 48.7099 312.707 49.2141C312.707 49.7183 312.828 50.1563 313.069 50.5166C313.31 50.877 313.673 51.1857 314.156 51.4442C314.641 51.7028 315.25 51.9404 315.989 52.1569C316.416 52.2894 316.753 52.4268 317.002 52.5706C317.253 52.7128 317.43 52.8712 317.54 53.0441C317.649 53.217 317.704 53.4142 317.704 53.6356C317.704 53.8699 317.642 54.0735 317.521 54.2464C317.4 54.4194 317.224 54.5519 316.991 54.6472C316.758 54.7409 316.474 54.7878 316.136 54.7878C315.74 54.7878 315.373 54.7377 315.036 54.6375C314.698 54.5373 314.434 54.4064 314.242 54.2448L314.045 52.9197H312.599V55.1724C313.145 55.5522 313.699 55.8188 314.261 55.9724C314.824 56.1259 315.449 56.2018 316.136 56.2018C316.823 56.2018 317.43 56.0968 317.948 55.8883C318.463 55.6799 318.864 55.3825 319.15 54.9963C319.436 54.6101 319.578 54.1527 319.578 53.6243C319.578 52.8599 319.313 52.2442 318.781 51.7755C318.25 51.3069 317.471 50.9287 316.443 50.6427V50.6395H316.445ZM1.85197 39.3224H237.822V36.2374H1.85197V39.3224ZM255.768 36.2374V39.3224H319.997V36.2374H255.768Z" fill="white"/>
</g>
<defs>
<clipPath id="clip0_23_1557">
<rect width="320" height="58.3888" fill="white"/>
</clipPath>
</defs>
</svg>
